<svg id="Layer_1" data-name="Layer 1" xmlns="http://www.w3.org/2000/svg" width="300" height="300" viewBox="0 0 300 300">
  <defs>
    <style>
      .cls-1, .cls-2, .cls-3 {
        fill: none;
      }

      .cls-2, .cls-3 {
        stroke: #003a5d;
        stroke-width: 4.2px;
      }

      .cls-2 {
        stroke-miterlimit: 10;
      }
    </style>
  </defs>
  <rect class="cls-1" width="300" height="300"/>
  <g>
    <path class="cls-2" d="M247.77,201.05a12.44,12.44,0,1,1-12.43-12.44A12.44,12.44,0,0,1,247.77,201.05ZM145.14,163.9l24.91,24.92m0-24.91-24.91,24.91m74.09,54.1,17.13,21.49m-63.13-21.49-17.12,21.49m40.12-21.49v21.49m81.26-30.22H115v8.73H277.49Zm0-102.08H115v14.1H277.49Zm-4,101.4H119v-87.3H273.46Z"/>
    <path class="cls-3" d="M155,219.53c27.58,0,49.93-22.07,49.93-49.28a49.44,49.44,0,0,0-.26-5m12.2,10-12.27-12.26-12.27,12.26"/>
  </g>
</svg>
