<svg id="Layer_1" data-name="Layer 1" xmlns="http://www.w3.org/2000/svg" width="300" height="300" viewBox="0 0 300 300">
  <defs>
    <style>
      .cls-1, .cls-2, .cls-3 {
        fill: none;
      }

      .cls-2, .cls-3 {
        stroke: #003a5d;
        stroke-width: 4.2px;
      }

      .cls-2 {
        stroke-linecap: round;
        stroke-linejoin: round;
      }

      .cls-3 {
        stroke-miterlimit: 10;
      }
    </style>
  </defs>
  <rect class="cls-1" width="300" height="300"/>
  <g>
    <path class="cls-2" d="M144,144.07a36.86,36.86,0,0,0,2.38,13h68.73a36.33,36.33,0,0,0,0-25.92H146.39A36.72,36.72,0,0,0,144,144.07Zm36.75,36.76a36.76,36.76,0,0,0,0-73.51ZM202,144.07c0,20.3-9.53,36.76-21.26,36.76s-21.26-16.46-21.26-36.76,9.52-36.75,21.26-36.75S202,123.78,202,144.07Zm15.49,0a36.75,36.75,0,1,1-36.75-36.75A36.76,36.76,0,0,1,217.5,144.07Z"/>
    <path class="cls-3" d="M185.48,258.52v-17.2h49v17.2M223.16,241l31.16-52.81.4-37.08c-.13,0-.26,0-.4,0h-3.15c-5.22,0-9,5-9.82,10.28V182l-7.69,8.13-22,22-2-2,13.69-13.62c3.4-3.6,2.25-10.26-1.35-13.65l-1-.81-24.37,24.36-1.14,17.71v16.51m33.22-47.69V172.31c.85-5.26,4.6-10.28,9.82-10.28h3.15l.4,0M173,258.52v-17.2H124v17.2m11.84-18.33-3.66-5-28-47-.39-37.08.39,0h3.15c5.23,0,9,5,9.83,10.28V182l7.69,8.13,22,22,2-2L135.2,196.47c-3.39-3.6-2.26-10.26,1.35-13.65l1-.81,24.37,24.36L163,224.08v17.73M129.8,192.9V172.31C129,167.05,125.2,162,120,162h-3.15l-.39,0"/>
  </g>
</svg>
