<svg id="Layer_1" data-name="Layer 1" xmlns="http://www.w3.org/2000/svg" width="300" height="300" viewBox="0 0 300 300">
  <defs>
    <style>
      .cls-1, .cls-2 {
        fill: none;
      }

      .cls-2 {
        stroke: #003a5d;
        stroke-miterlimit: 10;
        stroke-width: 4.2px;
      }
    </style>
  </defs>
  <rect class="cls-1" width="300" height="300"/>
  <path class="cls-2" d="M255.56,198.52V154.11H218.31v44.41M248,154A13.91,13.91,0,0,0,253.16,144v-19.7L253,119.9a4.22,4.22,0,0,0-4.22-4.22c-2.33,0-4.22.84-4.22,3.17v-1.06a4.22,4.22,0,1,0-8.44,0v-2.11a4.22,4.22,0,1,0-8.44,0l0-.68a4.37,4.37,0,1,0-8.73,0l0,21.4-.09-2.08V125.6a6.45,6.45,0,0,0-6.45-6.45h-2.14c-.1,0,.08,0,0,0v8.07s0,0,0,0V138l14.45,15.25m-5.38-36.46H153.64V154H267.5M152.56,123.7a11.33,11.33,0,0,0-9.08-4.56h-19.7l-4.35.21a4.22,4.22,0,0,0-4.22,4.22c0,2.33.84,4.22,3.17,4.22h-1.06a4.22,4.22,0,1,0,0,8.44h-2.11a4.22,4.22,0,0,0,0,8.44l-.68,0a4.37,4.37,0,0,0,0,8.74l21.4,0-2.08.08h-8.72a6.46,6.46,0,0,0-6.45,6.46v2.14c0,.09,0-.09,0,0h8.07s0,0,0,0h10.7l15.33-13.08m-37.07,4.76v67.36H153V107.32M123.43,221.48c-2.76,2.07-5.29,6.15-5.29,9.86V251l.21,4.36a4.22,4.22,0,0,0,4.22,4.22c2.33,0,4.22-.84,4.22-3.17v1.06a4.22,4.22,0,0,0,8.44,0v2.11a4.22,4.22,0,0,0,8.44,0l0,.68a4.37,4.37,0,0,0,8.74,0l0-21.4.09,2.08v8.72a6.45,6.45,0,0,0,6.45,6.45h2.14c.09,0-.09,0,0,0v-8.08s0,0,0,0v-10.7l-12.22-14.22c-1.41-1.34-3.26-1.58-5.21-2.06m8.9,37.49h65V221.3H103.8m114.94,30.29a11.3,11.3,0,0,0,9.08,4.56h19.7l4.35-.21a4.22,4.22,0,0,0,4.22-4.22c0-2.33-.84-4.22-3.17-4.22H254a4.22,4.22,0,1,0,0-8.44h2.12a4.22,4.22,0,0,0,0-8.44l.68,0a4.37,4.37,0,1,0,0-8.73l-21.4,0,2.08-.09h8.72a6.44,6.44,0,0,0,6.44-6.44v-2.15c0-.1,0,.08,0,0h-8.07s0,0,0,0h-10.7L219.6,225.37c-1.34,1.41-1.55,3.67-2,5.63m38-9.94V154.11H218.31V268"/>
</svg>
