<svg id="Layer_1" data-name="Layer 1" xmlns="http://www.w3.org/2000/svg" width="300" height="300" viewBox="0 0 300 300">
  <defs>
    <style>
      .cls-1, .cls-2, .cls-3 {
        fill: none;
      }

      .cls-2, .cls-3 {
        stroke: #003a5d;
        stroke-width: 4.2px;
      }

      .cls-2 {
        stroke-miterlimit: 10;
      }

      .cls-3 {
        stroke-linejoin: bevel;
      }

      .cls-4 {
        fill: #4a5059;
      }

      .cls-5 {
        fill: #003a5d;
      }
    </style>
  </defs>
  <rect class="cls-1" width="300" height="300"/>
  <g>
    <path class="cls-2" d="M214.42,120.36a29.86,29.86,0,1,1-29.86-29.85A29.86,29.86,0,0,1,214.42,120.36ZM224.29,171l-18,.62m19.5-18.76-41.92,41.93m36.49-15.89c-6.4,6.41-16.13,8.05-26,5.43-2.62-9.9-1-19.63,5.43-26s16.14-8,26-5.43C228.42,162.75,226.78,172.48,220.37,178.89ZM160.23,153l1.39,19.91m-16.31,2.2,18,.62m-21.83-22.83,41.93,41.93m-36.5-15.89c6.4,6.41,16.14,8.05,26,5.43,2.61-9.9,1-19.63-5.43-26s-16.15-8-26.05-5.43C138.85,162.75,140.49,172.48,146.9,178.89Zm37.31-28.72V207"/>
    <path class="cls-3" d="M203.94,120.36A19.38,19.38,0,1,1,184.56,101,19.38,19.38,0,0,1,203.94,120.36Z"/>
    <path class="cls-2" d="M87,215h33.75v64.56H87M100.55,215H130.6v57.27h-9.73m9.55-12.14H153l63.87-23.71,40.92-28.16c-.12-.13-.22-.27-.34-.39l-2.94-2.94c-4.87-4.87-13-3.68-18.73.42l-24.34,14-9.57,5.57h-41v-3.74l25.43,0c6.52-.19,11.65-7.44,11.47-14,0,0-.14-1.47-.16-1.64H152.23L134.69,221h-4.27m98.48-11.29,6.16-11.35c-.16-.07-.31-.14-.48-.2l-4-1.28c-6.55-2.13-13.28,2.63-16.5,8.87l-11.84,18.16"/>
    <path class="cls-4" d="M107.78,261.25a4.56,4.56,0,1,0,4.56,4.56,4.56,4.56,0,0,0-4.56-4.56"/>
    <path class="cls-2" d="M107.78,261.25a4.56,4.56,0,1,0,4.56,4.56A4.56,4.56,0,0,0,107.78,261.25Z"/>
    <polyline class="cls-2" points="86.98 214.96 120.73 214.96 120.73 279.5 86.98 279.5"/>
    <path class="cls-5" d="M179.33,117.45V115a16.74,16.74,0,0,0,2.44-.23,3.46,3.46,0,0,0,1.8-1,3.24,3.24,0,0,0,.73-1.34,3.29,3.29,0,0,0,.14-.75h3.07v18.73h-3.77V117.45Z"/>
  </g>
</svg>
