<svg id="Layer_1" data-name="Layer 1" xmlns="http://www.w3.org/2000/svg" width="300" height="300" viewBox="0 0 300 300">
  <defs>
    <style>
      .cls-1, .cls-2, .cls-3, .cls-4 {
        fill: none;
      }

      .cls-2, .cls-3, .cls-4 {
        stroke: #003a5d;
        stroke-width: 4.2px;
      }

      .cls-2 {
        stroke-miterlimit: 10;
      }

      .cls-4 {
        stroke-linecap: round;
        stroke-linejoin: bevel;
      }
    </style>
  </defs>
  <rect class="cls-1" width="300" height="300"/>
  <g>
    <path class="cls-2" d="M194.65,148.09a34.51,34.51,0,1,0-69,0c0,1.12.83,17.07,13.83,33.81,3.81,5.06,3.18,15.21,3.14,15.21h35.16S177,187,180.83,181.9C193.84,165.15,194.65,149.21,194.65,148.09ZM131.77,279.51V221.84a53.39,53.39,0,0,1-6.48-67.56m67.92-18a53.38,53.38,0,0,1,29.73,47.87c0,.81,0,1.61-.06,2.42l7.45,12.91,9.81,17h-12.4v21.08a14.4,14.4,0,0,1-14.4,14.4H190.55v27.59M132.72,97.63l5.8,10.05m-26.74,10.26,10.06,5.8M103.8,146h11.61m94-26.56-10.06,5.8M189.06,98.49l-5.8,10.06M161,90.51v11.61"/>
    <path class="cls-3" d="M174.91,158.26l-3,3.57-3-3.57-3,3.57-3-3.57-3,3.57-3-3.57-3,3.57-3-3.57-3,3.57-3-3.57m6.47,38.7L145,157m23.87,40,6.48-40"/>
    <path class="cls-4" d="M140.3,204.68a2.92,2.92,0,0,1,2.14-2.8,2.9,2.9,0,0,1,.67-5.7h34.07a2.9,2.9,0,0,1,.67,5.7,2.9,2.9,0,0,1,0,5.59,2.9,2.9,0,0,1-.67,5.7v.26a3.9,3.9,0,0,1-3.91,3.89H147a3.9,3.9,0,0,1-3.91-3.89v-.26a2.9,2.9,0,0,1-.67-5.7A2.91,2.91,0,0,1,140.3,204.68Z"/>
    <line class="cls-2" x1="177.88" y1="205.03" x2="149.81" y2="205.03"/>
  </g>
</svg>
