<?xml version="1.0" encoding="UTF-8" standalone="no"?>
<!DOCTYPE svg PUBLIC "-//W3C//DTD SVG 1.1//EN" "http://www.w3.org/Graphics/SVG/1.1/DTD/svg11.dtd">
<svg width="100%" height="100%" viewBox="0 0 62 58" version="1.1" xmlns="http://www.w3.org/2000/svg" xmlns:xlink="http://www.w3.org/1999/xlink" xml:space="preserve" xmlns:serif="http://www.serif.com/" style="fill-rule:evenodd;clip-rule:evenodd;">
    <g transform="matrix(0.951613,0,0,0.951613,1.5,1.40323)">
        <path d="M50,40C56.627,40 62,34.627 62,28C62,22.053 58,17 52,17C52,12 49,8 43,8L42,8C39.272,3.076 34.028,0 28,0C19.164,0 12,7.164 12,16C5.373,16 0,21.373 0,28C0,34.627 5.373,40 12,40" style="fill:none;stroke:rgb(0,167,157);stroke-width:2px;"/>
    </g>
    <g transform="matrix(0.951613,0,0,0.951613,18.629,7.1129)">
        <path d="M0,11C0,4.925 5,0 10,0" style="fill:none;stroke:rgb(0,167,157);stroke-width:2px;"/>
    </g>
    <g transform="matrix(0.951613,0,0,0.951613,14.1414,22.3387)">
        <path d="M33.866,10.09L28.395,10.241L30.231,5.08C29.019,3.904 27.646,2.897 26.143,2.099L21.794,5.445L20.248,0.199C19.419,0.082 18.578,0 17.716,0C16.854,0 16.013,0.082 15.183,0.199L13.637,5.445L9.288,2.1C7.785,2.898 6.412,3.905 5.2,5.081L7.036,10.242L1.566,10.09C0.83,11.591 0.297,13.205 0.001,14.906L4.516,18L0,21.094C0.296,22.795 0.829,24.409 1.565,25.91L7.036,25.759L5.2,30.92C6.412,32.096 7.785,33.103 9.288,33.9L13.637,30.554L15.183,35.8C16.013,35.918 16.854,36 17.716,36C18.578,36 19.419,35.918 20.249,35.801L21.795,30.555L26.144,33.901C27.647,33.103 29.02,32.096 30.232,30.921L28.396,25.76L33.867,25.911C34.603,24.41 35.137,22.796 35.432,21.095L30.916,18L35.432,14.906C35.136,13.205 34.603,11.591 33.866,10.09Z" style="fill:none;stroke:rgb(0,167,157);stroke-width:2px;"/>
    </g>
    <g transform="matrix(0.951613,0,0,0.951613,22.4355,30.9032)">
        <path d="M9,18C13.971,18 18,13.971 18,9C18,4.029 13.971,0 9,0C4.029,0 0,4.029 0,9C0,13.971 4.029,18 9,18Z" style="fill:none;stroke:rgb(0,167,157);stroke-width:2px;"/>
    </g>
    <g transform="matrix(0.951613,0,0,0.951613,26.2419,34.7097)">
        <path d="M5,10C7.761,10 10,7.761 10,5C10,2.239 7.761,0 5,0C2.239,0 0,2.239 0,5C0,7.761 2.239,10 5,10Z" style="fill:none;stroke:rgb(0,167,157);stroke-width:2px;"/>
    </g>
</svg>
