<svg version="1.2" xmlns="http://www.w3.org/2000/svg" viewBox="0 0 62 56" width="62" height="56">
	<title>capitalise-on-technology-svg</title>
	<style>
		.s0 { fill: none;stroke: #8dc63f;stroke-width: 1.9 } 
	</style>
	<g id="Folder 1">
		<g id="Layer">
			<circle id="Layer" class="s0" cx="4.4" cy="28" r="2.9"/>
		</g>
		<g id="Layer">
			<circle id="Layer" class="s0" cx="57.6" cy="28" r="2.9"/>
		</g>
		<g id="Layer">
			<path id="Layer" class="s0" d="m52.9 7.1v5.7h-5.7"/>
		</g>
		<g id="Layer">
			<path id="Layer" class="s0" d="m9.1 48.9v-5.7h5.7"/>
		</g>
		<g id="Layer">
			<path id="Layer" class="s0" d="m47.9 25.1l-4.3 2.9 4.3 2.9q-0.5 2.5-1.5 4.6l-5.2-0.1 1.7 4.9q-1.7 1.7-3.9 2.8l-4.1-3.2-1.5 5q-1.2 0.2-2.4 0.2-1.2 0-2.4-0.2l-1.5-5-4.1 3.2q-2.2-1.1-3.9-2.8l1.7-4.9-5.2 0.1q-1-2.1-1.5-4.6l4.3-2.9-4.3-2.9q0.5-2.5 1.5-4.6l5.2 0.1-1.7-4.9q1.7-1.7 3.9-2.8l4.1 3.2 1.5-5q1.2-0.2 2.4-0.2 1.2 0 2.4 0.2l1.5 5 4.1-3.2q2.2 1.1 3.9 2.8l-1.7 4.9 5.2-0.1q1 2.1 1.5 4.6z"/>
		</g>
		<g id="Layer">
			<path id="Layer" class="s0" d="m5.3 37.5h1.9"/>
		</g>
		<g id="Layer">
			<path id="Layer" class="s0" d="m54.8 18.5h1.9"/>
		</g>
		<g id="Layer">
			<path id="Layer" class="s0" d="m57.5 30.7c-1.4 13.5-12.7 23.9-26.5 23.9-9.1 0-17.1-4.5-21.9-11.4"/>
		</g>
		<g id="Layer">
			<path id="Layer" class="s0" d="m4.5 25.2c1.4-13.4 12.7-23.8 26.5-23.8 9.1 0 17.1 4.5 21.9 11.4"/>
		</g>
		<g id="Layer">
			<path id="Layer" class="s0" d="m28.1 30.9c0 1.5 1.3 2.8 2.9 2.8 1.6 0 2.9-1.3 2.9-2.8 0-1.6-2.9-2.9-2.9-2.9 0 0-2.9-1.3-2.9-2.9 0-1.5 1.3-2.8 2.9-2.8 1.6 0 2.9 1.3 2.9 2.8"/>
		</g>
		<g id="Layer">
			<path id="Layer" class="s0" d="m31 22.3v-2.9"/>
		</g>
		<g id="Layer">
			<path id="Layer" class="s0" d="m31 33.7v2.9"/>
		</g>
		<g id="Layer">
			<path id="Layer" class="s0" d="m36.7 28h1.9"/>
		</g>
		<g id="Layer">
			<path id="Layer" class="s0" d="m23.4 28h1.9"/>
		</g>
	</g>
</svg>