<svg version="1.2" xmlns="http://www.w3.org/2000/svg" viewBox="0 0 59 59" width="59" height="59">
	<title>no-downtime-svg</title>
	<style>
		.s0 { fill: none;stroke: #8dc63f;stroke-width: 1.9 } 
	</style>
	<g id="Folder 1">
		<g id="Layer">
			<path id="Layer" class="s0" d="m32.5 29.5h9.3"/>
		</g>
		<g id="Layer">
			<path id="Layer" class="s0" d="m37.3 3.1c11.5 3.3 19.9 13.9 19.9 26.4 0 15.2-12.3 27.6-27.5 27.6-15.2 0-27.5-12.4-27.5-27.6 0-12.5 8.4-23.1 19.9-26.4"/>
		</g>
		<g id="Layer">
			<circle id="Layer" class="s0" cx="29.7" cy="29.5" r="22.8"/>
		</g>
		<g id="Layer">
			<circle id="Layer" class="s0" cx="29.7" cy="29.5" r="2.8"/>
		</g>
		<g id="Layer">
			<path id="Layer" class="s0" d="m49.6 29.5h-1.9"/>
		</g>
		<g id="Layer">
			<path id="Layer" class="s0" d="m11.7 29.5h-1.9"/>
		</g>
		<g id="Layer">
			<path id="Layer" class="s0" d="m17.4 16.3h-1.9"/>
		</g>
		<g id="Layer">
			<path id="Layer" class="s0" d="m43.9 42.8h-1.9"/>
		</g>
		<g id="Layer">
			<path id="Layer" class="s0" d="m42 16.3h1.9"/>
		</g>
		<g id="Layer">
			<path id="Layer" class="s0" d="m15.5 42.8h1.9"/>
		</g>
		<g id="Layer">
			<path id="Layer" class="s0" d="m29.7 49.5v-1.9"/>
		</g>
		<g id="Layer">
			<path id="Layer" class="s0" d="m29.7 11.5v-1.9"/>
		</g>
		<g id="Layer">
			<path id="Layer" class="s0" d="m5.2 42.8c-5.8-10.5-4.2-23.9 4.7-32.8 10.7-10.7 28.1-10.7 38.9 0 10.7 10.7 10.7 28.2 0 38.9-8.9 8.9-22.4 10.4-32.8 4.6"/>
		</g>
		<g id="Layer">
			<path id="Layer" class="s0" d="m29.7 14.6v11.4"/>
		</g>
	</g>
</svg>