<svg version="1.2" xmlns="http://www.w3.org/2000/svg" viewBox="0 0 62 62" width="62" height="62">
	<title>scalability-svg</title>
	<style>
		.s0 { fill: none;stroke: #8dc63f;stroke-width: 1.9 } 
	</style>
	<g id="Folder 1">
		<g id="Layer">
			<circle id="Layer" class="s0" cx="31" cy="31" r="29.5"/>
		</g>
		<g id="Layer">
			<path id="Layer" class="s0" d="m15.8 35.8v-13.4l15.2 9.6v17.1l-12.4-7.8"/>
		</g>
		<g id="Layer">
			<path id="Layer" class="s0" d="m43.4 41.3l-12.4 7.8v-17.1l15.2-9.6v13.4"/>
		</g>
		<g id="Layer">
			<path id="Layer" class="s0" d="m33.9 14.7l12.3 7.7-15.2 9.6-15.2-9.6 12.3-7.7"/>
		</g>
		<g id="Layer">
			<path id="Layer" class="s0" d="m27.2 33.9l-18.1 8.5"/>
		</g>
		<g id="Layer">
			<path id="Layer" class="s0" d="m15.8 45.3l-6.7-2.9 1.9-6.6"/>
		</g>
		<g id="Layer">
			<path id="Layer" class="s0" d="m34.8 33.9l18.1 8.5"/>
		</g>
		<g id="Layer">
			<path id="Layer" class="s0" d="m51 35.8l1.9 6.6-6.7 2.9"/>
		</g>
		<g id="Layer">
			<path id="Layer" class="s0" d="m31 27.2v-20.9"/>
		</g>
		<g id="Layer">
			<path id="Layer" class="s0" d="m25.3 11l5.7-4.7 5.7 4.7"/>
		</g>
		<g id="Layer">
			<circle id="Layer" class="s0" cx="31" cy="31" r="10.5"/>
		</g>
	</g>
</svg>